<svg xmlns="http://www.w3.org/2000/svg" xmlns:xlink="http://www.w3.org/1999/xlink" version="1.1" width="1080pt" height="1080pt" viewBox="0 0 1080 1080">
<defs>
<clipPath id="clip_0">
<path transform="matrix(1,0,0,-1,0,1080)" d="M0 1080H1080V0H0Z"/>
</clipPath>
</defs>
<g id="layer_1" data-name="">
<path transform="matrix(1,0,0,-1,424.3604,340.8589)" d="M0 0-119.198-119.199-168.393-70.003-49.195 49.195ZM160.944 119.198 210.139 70.003 118.299-21.836 90.812-49.195 20.808-119.199-28.387-70.003 69.104 27.359ZM230.947 49.195 280.142 0 188.303-91.839 160.944-119.199 111.748-70.003 139.108-42.644ZM20.808 259.333 70.003 210.138 20.808 160.943-28.387 210.138Z" fill="#1094cf" fill-rule="evenodd"/>
<path transform="matrix(1,0,0,-1,203.2586,833.881)" d="M0 0-18.565 54.844-36.917 0ZM9.391-28.169H-46.521L-55.484-54.631H-93.682L-39.478 95.175H2.774L56.977-54.631H18.352Z" fill="#0c5b88"/>
<g clip-path="url(#clip_0)">
<path transform="matrix(1,0,0,-1,323.8301,806.1402)" d="M0 0H22.62C29.306 0 34.321 1.635 37.664 4.908 41.007 8.18 42.68 12.806 42.68 18.78 42.68 24.469 41.007 28.95 37.664 32.224 34.321 35.495 29.306 37.132 22.62 37.132H0ZM39.906-82.372 8.748-25.82H0V-82.372H-36.491V67.434H24.754C36.561 67.434 46.627 65.372 54.95 61.247 63.273 57.118 69.494 51.464 73.623 44.28 77.748 37.095 79.812 29.093 79.812 20.273 79.812 10.314 77.001 1.422 71.383-6.402 65.761-14.228 57.475-19.776 46.521-23.045L81.091-82.372Z" fill="#0c5b88"/>
<path transform="matrix(1,0,0,-1,473.636,767.9403)" d="M0 0V-30.302H48.867V-58.473H0V-91.335H55.271V-120.571H-36.491V29.234H55.271V0Z" fill="#0c5b88"/>
<path transform="matrix(1,0,0,-1,599.7539,860.3433)" d="M0 0H47.801V-28.169H-36.491V121.637H0Z" fill="#0c5b88"/>
<path transform="matrix(1,0,0,-1,804.1884,738.70596)" d="M0 0-51.856-100.296V-149.806H-88.348V-100.296L-140.204 0H-98.805L-69.783-62.739-40.974 0Z" fill="#0c5b88"/>
<path transform="matrix(1,0,0,-1,913.4456,833.881)" d="M0 0-18.565 54.844-36.917 0ZM9.391-28.169H-46.521L-55.484-54.631H-93.682L-39.478 95.175H2.774L56.977-54.631H18.352Z" fill="#0c5b88"/>
<path transform="matrix(1,0,0,-1,136.5211,990.89346)" d="M0 0H23.443V-6.536H-9.063V0L14.118 34.771H-8.888V41.218H23.268V34.771Z" fill="#1094cf"/>
<path transform="matrix(1,0,0,-1,221.0512,962.266)" d="M0 0C-1.336 2.177-3.151 3.834-5.447 4.967-7.742 6.099-10.283 6.666-13.07 6.666-17.08 6.666-20.493 5.387-23.311 2.832-26.129 .274-27.741-3.269-28.148-7.801H2.005C2.005-4.78 1.336-2.18 0 0M9.936-14.25H-28.233C-27.944-18.954-26.332-22.63-23.398-25.273-20.465-27.918-16.905-29.237-12.723-29.237-9.295-29.237-6.435-28.441-4.139-26.84-1.844-25.245-.232-23.11 .697-20.436H9.238C7.959-25.027 5.404-28.757 1.57-31.634-2.265-34.511-7.028-35.949-12.723-35.949-17.254-35.949-21.306-34.932-24.878-32.899-28.452-30.866-31.256-27.975-33.289-24.228-35.322-20.479-36.339-16.139-36.339-11.198-36.339-6.262-35.35-1.934-33.374 1.785-31.4 5.503-28.625 8.366-25.053 10.368-21.481 12.373-17.37 13.375-12.723 13.375-8.191 13.375-4.182 12.387-.695 10.413 2.789 8.437 5.477 5.721 7.364 2.265 9.253-1.191 10.198-5.099 10.198-9.456 10.198-10.966 10.111-12.564 9.936-14.25" fill="#1094cf"/>
<path transform="matrix(1,0,0,-1,326.4975,951.1128)" d="M0 0C2.905-1.539 5.201-3.849 6.886-6.926 8.569-10.007 9.413-13.756 9.413-18.169V-46.317H1.57V-19.302C1.57-14.538 .392-10.893-1.96-8.366-4.312-5.839-7.494-4.574-11.503-4.574-15.628-4.574-18.909-5.896-21.349-8.539-23.788-11.184-25.011-15.004-25.011-19.999V-46.317H-32.852V-19.302C-32.852-14.538-34.029-10.893-36.381-8.366-38.736-5.839-41.915-4.574-45.924-4.574-50.05-4.574-53.331-5.896-55.773-8.539-58.212-11.184-59.432-15.004-59.432-19.999V-46.317H-67.361V1.437H-59.432V-5.447C-57.862-2.948-55.758-1.031-53.113 .305-50.47 1.641-47.551 2.31-44.355 2.31-40.348 2.31-36.804 1.409-33.724-.392-30.646-2.194-28.351-4.837-26.84-8.321-25.505-4.952-23.297-2.338-20.216-.48-17.139 1.381-13.711 2.31-9.933 2.31-6.217 2.31-2.905 1.539 0 0" fill="#1094cf"/>
<path transform="matrix(1,0,0,-1,0,1080)" d="M374.252 82.57H366.32304V130.324H374.252ZM366.583 139.65C365.538 140.695 365.016 141.974 365.016 143.485 365.016 144.995 365.538 146.274 366.583 147.319 367.628 148.364 368.907 148.889 370.417 148.889 371.869 148.889 373.105 148.364 374.122 147.319 375.138 146.274 375.646 144.995 375.646 143.485 375.646 141.974 375.138 140.695 374.122 139.65 373.105 138.605 371.869 138.081 370.417 138.081 368.907 138.081 367.628 138.605 366.583 139.65" fill="#1094cf"/>
<path transform="matrix(1,0,0,-1,442.5722,954.0749)" d="M0 0C3.603-3.515 5.404-8.583 5.404-15.207V-43.355H-2.44V-16.34C-2.44-11.576-3.631-7.931-6.012-5.404-8.394-2.877-11.647-1.612-15.772-1.612-19.956-1.612-23.283-2.919-25.751-5.534-28.221-8.149-29.455-11.954-29.455-16.95V-43.355H-37.384V4.399H-29.455V-2.397C-27.885 .043-25.751 1.931-23.049 3.267-20.349 4.603-17.37 5.272-14.117 5.272-8.309 5.272-3.603 3.513 0 0" fill="#1094cf"/>
<path transform="matrix(1,0,0,-1,545.3615,989.8485)" d="M0 0C2.527 1.22 4.924 3.109 7.189 5.664L-10.676 23.616C-18.113 20.77-21.829 16.266-21.829 10.108-21.829 6.681-20.597 3.834-18.127 1.57-15.656-.697-12.449-1.83-8.496-1.83-5.359-1.83-2.527-1.22 0 0M20.349-7.581 12.418 .435C9.456-2.643 6.288-4.924 2.919-6.404-.452-7.886-4.258-8.626-8.496-8.626-12.68-8.626-16.382-7.872-19.607-6.361-22.831-4.851-25.33-2.702-27.103 .087-28.876 2.877-29.76 6.13-29.76 9.848-29.76 14.087-28.554 17.822-26.143 21.046-23.734 24.271-20.174 26.812-15.467 28.67-17.328 30.878-18.663 32.911-19.477 34.771-20.292 36.629-20.696 38.662-20.696 40.87-20.696 43.428-20.044 45.735-18.737 47.799-17.429 49.86-15.555 51.473-13.115 52.636-10.676 53.796-7.858 54.378-4.662 54.378-1.525 54.378 1.206 53.768 3.529 52.548 5.853 51.328 7.595 49.629 8.758 47.452 9.919 45.272 10.442 42.847 10.326 40.173H2.397C2.454 42.556 1.787 44.428 .392 45.794-1.002 47.158-2.804 47.844-5.012 47.844-7.335 47.844-9.208 47.189-10.631 45.882-12.056 44.575-12.768 42.903-12.768 40.87-12.768 39.128-12.288 37.443-11.328 35.816-10.371 34.19-8.758 32.185-6.491 29.805L11.633 11.59 13.203 14.03 19.129 23.966H27.668L20.521 11.59C19.533 9.848 18.373 8.019 17.037 6.101L30.72-7.581Z" fill="#1094cf"/>
<path transform="matrix(1,0,0,-1,651.283,956.2095)" d="M0 0V-28.148C0-30.474 .494-32.114 1.482-33.072 2.47-34.031 4.184-34.509 6.624-34.509H12.463V-41.22H5.317C.901-41.22-2.411-40.204-4.617-38.171-6.827-36.138-7.929-32.797-7.929-28.148V0H-14.118V6.534H-7.929V18.562H0V6.534H12.463V0Z" fill="#1094cf"/>
<path transform="matrix(1,0,0,-1,726.0523,964.0531)" d="M0 0C-1.451 2.671-3.414 4.718-5.882 6.144-8.352 7.567-11.066 8.279-14.03 8.279-16.992 8.279-19.694 7.581-22.134 6.186-24.573 4.792-26.521 2.759-27.973 .087-29.424-2.586-30.15-5.723-30.15-9.326-30.15-12.985-29.424-16.165-27.973-18.867-26.521-21.569-24.573-23.632-22.134-25.053-19.694-26.479-16.992-27.19-14.03-27.19-11.066-27.19-8.352-26.479-5.882-25.053-3.414-23.632-1.451-21.569 0-18.867 1.451-16.165 2.18-13.014 2.18-9.411 2.18-5.811 1.451-2.674 0 0M-35.291 3.529C-33.318 7.217-30.601 10.078-27.145 12.113-23.689 14.146-19.838 15.162-15.597 15.162-11.416 15.162-7.784 14.262-4.704 12.46-1.626 10.659 .669 8.394 2.18 5.664V14.378H10.198V-33.377H2.18V-24.488C.61-27.278-1.728-29.585-4.837-31.417-7.945-33.247-11.56-34.161-15.685-34.161-19.926-34.161-23.76-33.114-27.188-31.024-30.616-28.932-33.318-25.999-35.291-22.221-37.268-18.446-38.256-14.148-38.256-9.326-38.256-4.444-37.268-.161-35.291 3.529" fill="#1094cf"/>
<path transform="matrix(1,0,0,-1,784.8768,990.1086)" d="M0 0 14.815 40.433H23.266L4.532-7.321H-4.707L-23.443 40.433H-14.902Z" fill="#1094cf"/>
<path transform="matrix(1,0,0,-1,868.7072,964.0531)" d="M0 0C-1.451 2.671-3.414 4.718-5.882 6.144-8.352 7.567-11.066 8.279-14.03 8.279-16.992 8.279-19.694 7.581-22.134 6.186-24.573 4.792-26.521 2.759-27.973 .087-29.424-2.586-30.15-5.723-30.15-9.326-30.15-12.985-29.424-16.165-27.973-18.867-26.521-21.569-24.573-23.632-22.134-25.053-19.694-26.479-16.992-27.19-14.03-27.19-11.066-27.19-8.352-26.479-5.882-25.053-3.414-23.632-1.451-21.569 0-18.867 1.451-16.165 2.18-13.014 2.18-9.411 2.18-5.811 1.451-2.674 0 0M-35.291 3.529C-33.318 7.217-30.601 10.078-27.145 12.113-23.689 14.146-19.838 15.162-15.597 15.162-11.416 15.162-7.784 14.262-4.704 12.46-1.626 10.659 .669 8.394 2.18 5.664V14.378H10.198V-33.377H2.18V-24.488C.61-27.278-1.728-29.585-4.837-31.417-7.945-33.247-11.56-34.161-15.685-34.161-19.926-34.161-23.76-33.114-27.188-31.024-30.616-28.932-33.318-25.999-35.291-22.221-37.268-18.446-38.256-14.148-38.256-9.326-38.256-4.444-37.268-.161-35.291 3.529" fill="#1094cf"/>
<path transform="matrix(1,0,0,-1,947.1384,954.0749)" d="M0 0C3.603-3.515 5.404-8.583 5.404-15.207V-43.355H-2.44V-16.34C-2.44-11.576-3.631-7.931-6.012-5.404-8.394-2.877-11.647-1.612-15.772-1.612-19.956-1.612-23.283-2.919-25.751-5.534-28.221-8.149-29.455-11.954-29.455-16.95V-43.355H-37.384V4.399H-29.455V-2.397C-27.885 .043-25.751 1.931-23.049 3.267-20.349 4.603-17.37 5.272-14.118 5.272-8.309 5.272-3.603 3.513 0 0" fill="#1094cf"/>
<path transform="matrix(1,0,0,-1,402.5244,222.55957)" d="M0 0 21.836 21.707-27.359 70.902-49.195 49.195-216.561-118.299-167.494-167.494-27.359-27.359Z" fill="#0c5b88"/>
<path transform="matrix(1,0,0,-1,375.1653,431.79933)" d="M0 0-49.195-49.195 0-98.39 49.195-49.195Z" fill="#0c5b88"/>
<path transform="matrix(1,0,0,-1,395.9735,270.8557)" d="M0 0 49.195-49.195 76.554-21.708 168.394 70.003 119.198 119.198 27.488 27.359Z" fill="#0c5b88"/>
<path transform="matrix(1,0,0,-1,515.1719,431.79933)" d="M0 0-119.198-119.198-70.003-168.394 49.195-49.195Z" fill="#0c5b88"/>
<path transform="matrix(1,0,0,-1,635.3982,81.52551)" d="M0 0-75.655-75.783 100.852-259.334-75.655-443.012 0-518.667 259.205-259.334Z" fill="#0c5b88"/>
</g>
</g>
</svg>
