<?xml version="1.0" encoding="utf-8"?>
<svg viewBox="0 0 500 500" xmlns="http://www.w3.org/2000/svg">
  <defs>
    <clipPath id="clip_0">
      <path transform="matrix(1,0,0,-1,0,1080)" d="M0 1080H1080V0H0Z"/>
    </clipPath>
  </defs>
  <g id="layer_1" data-name="" transform="matrix(1.854427, 0, 0, 1.854427, -739.246033, -680.597534)" style="">
    <path d="M 213.077 497.891 L 165.918 545.05 L 146.454 525.586 L 193.613 478.427 L 213.077 497.891 Z M 276.752 450.731 L 296.215 470.195 L 259.88 506.53 L 249.005 517.354 L 221.309 545.05 L 201.846 525.586 L 240.417 487.066 L 276.752 450.731 Z M 304.448 478.427 L 323.911 497.891 L 287.576 534.225 L 276.752 545.05 L 257.288 525.586 L 268.113 514.762 L 304.448 478.427 Z M 221.309 395.289 L 240.772 414.752 L 221.309 434.216 L 201.846 414.752 L 221.309 395.289 Z" fill="#1094cf" fill-rule="evenodd" style=""/>
    <path d="M 475.165 472.045 L 463.661 438.059 L 452.288 472.045 L 475.165 472.045 Z M 480.985 489.501 L 446.337 489.501 L 440.783 505.899 L 417.112 505.899 L 450.701 413.066 L 476.884 413.066 L 510.473 505.899 L 486.538 505.899 L 480.985 489.501 Z" fill="#0c5b88" style=""/>
    <g clip-path="url(#clip_0)">
      <path d="M 549.881 454.854 L 563.898 454.854 C 568.042 454.854 571.149 453.841 573.221 451.813 C 575.293 449.785 576.329 446.918 576.329 443.216 C 576.329 439.691 575.293 436.914 573.221 434.885 C 571.149 432.858 568.042 431.844 563.898 431.844 L 549.881 431.844 L 549.881 454.854 Z M 574.61 505.899 L 555.302 470.854 L 549.881 470.854 L 549.881 505.899 L 527.268 505.899 L 527.268 413.066 L 565.221 413.066 C 572.537 413.066 578.775 414.344 583.933 416.9 C 589.091 419.459 592.946 422.963 595.504 427.414 C 598.06 431.867 599.339 436.826 599.339 442.291 C 599.339 448.463 597.598 453.973 594.116 458.821 C 590.632 463.671 585.498 467.109 578.71 469.135 L 600.132 505.899 L 574.61 505.899 Z" fill="#0c5b88" style=""/>
      <path d="M 642.714 431.183 L 642.714 449.96 L 672.996 449.96 L 672.996 467.417 L 642.714 467.417 L 642.714 487.782 L 676.964 487.782 L 676.964 505.899 L 620.101 505.899 L 620.101 413.067 L 676.964 413.067 L 676.964 431.183 L 642.714 431.183 Z" fill="#0c5b88" style=""/>
      <path d="M 720.867 488.443 L 750.489 488.443 L 750.489 505.899 L 698.254 505.899 L 698.254 413.067 L 720.867 413.067 L 720.867 488.443 Z" fill="#0c5b88" style=""/>
      <path d="M 847.552 413.066 L 815.418 475.218 L 815.418 505.899 L 792.804 505.899 L 792.804 475.218 L 760.67 413.066 L 786.324 413.066 L 804.309 451.945 L 822.161 413.066 L 847.552 413.066 Z" fill="#0c5b88" style=""/>
      <path d="M 915.257 472.045 L 903.753 438.059 L 892.38 472.045 L 915.257 472.045 Z M 921.077 489.501 L 886.429 489.501 L 880.875 505.899 L 857.204 505.899 L 890.793 413.066 L 916.976 413.066 L 950.565 505.899 L 926.63 505.899 L 921.077 489.501 Z" fill="#0c5b88" style=""/>
      <path d="M 433.809 569.343 L 448.336 569.343 L 448.336 573.393 L 428.193 573.393 L 428.193 569.343 L 442.557 547.796 L 428.301 547.796 L 428.301 543.801 L 448.228 543.801 L 448.228 547.796 L 433.809 569.343 Z" fill="#1094cf" style=""/>
      <path d="M 486.191 551.603 C 485.363 550.254 484.238 549.227 482.815 548.525 C 481.393 547.823 479.818 547.472 478.091 547.472 C 475.606 547.472 473.491 548.265 471.745 549.848 C 469.999 551.433 469 553.629 468.748 556.437 L 487.433 556.437 C 487.433 554.565 487.019 552.954 486.191 551.603 M 492.348 560.433 L 468.695 560.433 C 468.874 563.348 469.873 565.626 471.691 567.264 C 473.509 568.903 475.715 569.721 478.306 569.721 C 480.431 569.721 482.203 569.227 483.626 568.235 C 485.048 567.247 486.047 565.924 486.623 564.267 L 491.915 564.267 C 491.123 567.112 489.539 569.423 487.164 571.206 C 484.787 572.989 481.836 573.88 478.306 573.88 C 475.499 573.88 472.988 573.25 470.774 571.99 C 468.559 570.73 466.822 568.939 465.562 566.617 C 464.302 564.293 463.672 561.604 463.672 558.542 C 463.672 555.483 464.285 552.801 465.509 550.497 C 466.733 548.193 468.452 546.419 470.666 545.178 C 472.879 543.935 475.427 543.315 478.306 543.315 C 481.115 543.315 483.599 543.927 485.76 545.15 C 487.919 546.375 489.585 548.058 490.754 550.199 C 491.925 552.341 492.51 554.763 492.51 557.463 C 492.51 558.398 492.456 559.389 492.348 560.433" fill="#1094cf" style=""/>
      <path d="M 551.535 544.691 C 553.335 545.645 554.758 547.077 555.802 548.983 C 556.845 550.893 557.368 553.216 557.368 555.951 L 557.368 573.393 L 552.507 573.393 L 552.507 556.653 C 552.507 553.7 551.777 551.442 550.32 549.876 C 548.862 548.31 546.891 547.526 544.406 547.526 C 541.85 547.526 539.817 548.345 538.305 549.983 C 536.793 551.622 536.036 553.989 536.036 557.085 L 536.036 573.393 L 531.177 573.393 L 531.177 556.653 C 531.177 553.7 530.447 551.442 528.99 549.876 C 527.53 548.31 525.56 547.526 523.076 547.526 C 520.519 547.526 518.486 548.345 516.973 549.983 C 515.461 551.622 514.705 553.989 514.705 557.085 L 514.705 573.393 L 509.792 573.393 L 509.792 543.801 L 514.705 543.801 L 514.705 548.067 C 515.678 546.518 516.982 545.33 518.621 544.502 C 520.259 543.675 522.068 543.26 524.048 543.26 C 526.532 543.26 528.728 543.818 530.636 544.934 C 532.544 546.051 533.966 547.689 534.902 549.848 C 535.729 547.76 537.098 546.14 539.007 544.989 C 540.914 543.836 543.038 543.26 545.379 543.26 C 547.682 543.26 549.734 543.738 551.535 544.691" fill="#1094cf" style=""/>
      <path d="M 581.127 573.393 L 576.213 573.393 L 576.213 543.801 L 581.127 543.801 L 581.127 573.393 Z M 576.375 538.022 C 575.727 537.374 575.404 536.582 575.404 535.645 C 575.404 534.71 575.727 533.917 576.375 533.269 C 577.022 532.622 577.815 532.297 578.75 532.297 C 579.65 532.297 580.416 532.622 581.046 533.269 C 581.676 533.917 581.991 534.71 581.991 535.645 C 581.991 536.582 581.676 537.374 581.046 538.022 C 580.416 538.669 579.65 538.994 578.75 538.994 C 577.815 538.994 577.022 538.669 576.375 538.022" fill="#1094cf" style=""/>
      <path d="M 623.464 546.527 C 625.697 548.705 626.813 551.846 626.813 555.951 L 626.813 573.393 L 621.952 573.393 L 621.952 556.653 C 621.952 553.7 621.214 551.442 619.738 549.876 C 618.262 548.31 616.246 547.526 613.69 547.526 C 611.097 547.526 609.036 548.336 607.506 549.956 C 605.976 551.577 605.211 553.935 605.211 557.031 L 605.211 573.393 L 600.297 573.393 L 600.297 543.801 L 605.211 543.801 L 605.211 548.012 C 606.184 546.5 607.506 545.33 609.181 544.502 C 610.854 543.675 612.7 543.26 614.716 543.26 C 618.315 543.26 621.231 544.35 623.464 546.527" fill="#1094cf" style=""/>
      <path d="M 687.161 568.696 C 688.727 567.94 690.212 566.769 691.616 565.186 L 680.545 554.061 C 675.937 555.825 673.634 558.616 673.634 562.432 C 673.634 564.555 674.398 566.32 675.928 567.723 C 677.459 569.128 679.447 569.83 681.896 569.83 C 683.84 569.83 685.595 569.452 687.161 568.696 M 699.771 573.393 L 694.856 568.426 C 693.021 570.333 691.058 571.747 688.97 572.664 C 686.881 573.582 684.523 574.041 681.896 574.041 C 679.304 574.041 677.009 573.574 675.011 572.637 C 673.013 571.702 671.465 570.37 670.366 568.642 C 669.267 566.913 668.719 564.897 668.719 562.593 C 668.719 559.966 669.467 557.652 670.961 555.654 C 672.454 553.655 674.66 552.081 677.576 550.929 C 676.423 549.561 675.596 548.301 675.092 547.149 C 674.587 545.997 674.336 544.737 674.336 543.369 C 674.336 541.784 674.74 540.354 675.55 539.075 C 676.361 537.798 677.522 536.799 679.034 536.078 C 680.545 535.359 682.292 534.998 684.272 534.998 C 686.216 534.998 687.908 535.376 689.348 536.132 C 690.788 536.888 691.868 537.941 692.588 539.29 C 693.308 540.641 693.632 542.144 693.56 543.801 L 688.647 543.801 C 688.682 542.324 688.269 541.164 687.404 540.318 C 686.54 539.473 685.424 539.047 684.055 539.047 C 682.616 539.047 681.455 539.453 680.573 540.263 C 679.69 541.073 679.249 542.109 679.249 543.369 C 679.249 544.449 679.546 545.493 680.141 546.501 C 680.734 547.509 681.734 548.751 683.139 550.226 L 694.37 561.513 L 695.343 560.001 L 699.015 553.844 L 704.307 553.844 L 699.878 561.513 C 699.265 562.593 698.547 563.726 697.719 564.915 L 706.198 573.393 L 699.771 573.393 Z" fill="#1094cf" style=""/>
      <path d="M 752.799 547.85 L 752.799 565.293 C 752.799 566.734 753.105 567.751 753.717 568.344 C 754.329 568.939 755.392 569.235 756.904 569.235 L 760.522 569.235 L 760.522 573.393 L 756.094 573.393 C 753.357 573.393 751.305 572.764 749.938 571.504 C 748.568 570.244 747.885 568.174 747.885 565.293 L 747.885 547.85 L 744.05 547.85 L 744.05 543.801 L 747.885 543.801 L 747.885 536.347 L 752.799 536.347 L 752.799 543.801 L 760.522 543.801 L 760.522 547.85 L 752.799 547.85 Z" fill="#1094cf" style=""/>
      <path d="M 799.133 552.71 C 798.233 551.055 797.017 549.787 795.488 548.903 C 793.957 548.021 792.275 547.58 790.438 547.58 C 788.603 547.58 786.928 548.012 785.416 548.877 C 783.905 549.741 782.698 551.001 781.798 552.656 C 780.899 554.313 780.449 556.257 780.449 558.489 C 780.449 560.757 780.899 562.727 781.798 564.402 C 782.698 566.076 783.905 567.355 785.416 568.235 C 786.928 569.119 788.603 569.559 790.438 569.559 C 792.275 569.559 793.957 569.119 795.488 568.235 C 797.017 567.355 798.233 566.076 799.133 564.402 C 800.032 562.727 800.483 560.775 800.483 558.542 C 800.483 556.311 800.032 554.367 799.133 552.71 M 777.263 550.523 C 778.486 548.238 780.17 546.465 782.311 545.204 C 784.453 543.944 786.839 543.315 789.467 543.315 C 792.058 543.315 794.309 543.872 796.218 544.989 C 798.125 546.105 799.547 547.509 800.483 549.2 L 800.483 543.8 L 805.452 543.8 L 805.452 573.393 L 800.483 573.393 L 800.483 567.885 C 799.511 569.614 798.062 571.044 796.135 572.179 C 794.209 573.313 791.969 573.879 789.413 573.879 C 786.785 573.879 784.409 573.23 782.285 571.935 C 780.16 570.639 778.486 568.821 777.263 566.48 C 776.038 564.141 775.426 561.478 775.426 558.489 C 775.426 555.464 776.038 552.81 777.263 550.523" fill="#1094cf" style=""/>
      <path d="M 835.585 568.857 L 844.765 543.801 L 850.002 543.801 L 838.393 573.393 L 832.668 573.393 L 821.058 543.801 L 826.35 543.801 L 835.585 568.857 Z" fill="#1094cf" style=""/>
      <path d="M 887.533 552.71 C 886.634 551.055 885.417 549.787 883.888 548.903 C 882.357 548.021 880.676 547.58 878.839 547.58 C 877.003 547.58 875.329 548.012 873.817 548.877 C 872.306 549.741 871.098 551.001 870.199 552.656 C 869.299 554.313 868.85 556.257 868.85 558.489 C 868.85 560.757 869.299 562.727 870.199 564.402 C 871.098 566.076 872.306 567.355 873.817 568.235 C 875.329 569.119 877.003 569.559 878.839 569.559 C 880.676 569.559 882.357 569.119 883.888 568.235 C 885.417 567.355 886.634 566.076 887.533 564.402 C 888.432 562.727 888.884 560.775 888.884 558.542 C 888.884 556.311 888.432 554.367 887.533 552.71 M 865.664 550.523 C 866.886 548.238 868.57 546.465 870.712 545.204 C 872.853 543.944 875.24 543.315 877.868 543.315 C 880.459 543.315 882.709 543.872 884.618 544.989 C 886.525 546.105 887.948 547.509 888.884 549.2 L 888.884 543.8 L 893.853 543.8 L 893.853 573.393 L 888.884 573.393 L 888.884 567.885 C 887.911 569.614 886.462 571.044 884.536 572.179 C 882.61 573.313 880.369 573.879 877.813 573.879 C 875.185 573.879 872.809 573.23 870.685 571.935 C 868.561 570.639 866.886 568.821 865.664 566.48 C 864.439 564.141 863.826 561.478 863.826 558.489 C 863.826 555.464 864.439 552.81 865.664 550.523" fill="#1094cf" style=""/>
      <path d="M 936.136 546.527 C 938.369 548.705 939.485 551.846 939.485 555.951 L 939.485 573.393 L 934.624 573.393 L 934.624 556.653 C 934.624 553.7 933.886 551.442 932.411 549.876 C 930.934 548.31 928.919 547.526 926.362 547.526 C 923.77 547.526 921.708 548.336 920.179 549.956 C 918.648 551.577 917.883 553.935 917.883 557.031 L 917.883 573.393 L 912.97 573.393 L 912.97 543.801 L 917.883 543.801 L 917.883 548.012 C 918.856 546.5 920.179 545.33 921.853 544.502 C 923.526 543.675 925.372 543.26 927.387 543.26 C 930.987 543.26 933.903 544.35 936.136 546.527" fill="#1094cf" style=""/>
      <path d="M 204.438 451.087 L 213.077 442.499 L 193.613 423.036 L 184.974 431.624 L 118.758 497.891 L 138.171 517.354 L 193.613 461.911 L 204.438 451.087 Z" fill="#0c5b88" style=""/>
      <path d="M 193.613 533.87 L 174.15 553.333 L 193.613 572.797 L 213.077 553.333 L 193.613 533.87 Z" fill="#0c5b88" style=""/>
      <path d="M 201.846 470.195 L 221.309 489.658 L 232.133 478.783 L 268.469 442.499 L 249.005 423.036 L 212.721 459.37 L 201.846 470.195 Z" fill="#0c5b88" style=""/>
      <path d="M 249.005 533.87 L 201.846 581.029 L 221.309 600.493 L 268.468 553.333 L 249.005 533.87 Z" fill="#0c5b88" style=""/>
      <path d="M 296.571 395.289 L 266.639 425.271 L 336.472 497.891 L 266.639 570.561 L 296.571 600.493 L 399.122 497.891 L 296.571 395.289 Z" fill="#0c5b88" style=""/>
    </g>
  </g>
</svg>