<?xml version="1.0" encoding="utf-8"?>
<svg version="1.1" id="Layer_1" width="800px" height="800px" viewBox="1.935 0 39.065 32" enable-background="new 0 0 41 32" xmlns="http://www.w3.org/2000/svg">
  <g style="" transform="matrix(0.872031, 0, 0, 0.872031, 0.111703, -0.109695)">
    <path d="M 13.165 34.231 C 13.174 34.237 13.186 34.234 13.195 34.24 C 13.268 34.277 13.344 34.304 13.426 34.304 C 13.47 34.304 13.514 34.298 13.558 34.286 L 24.426 31.32 L 35.294 34.286 C 35.338 34.298 35.382 34.304 35.426 34.304 C 35.508 34.304 35.584 34.277 35.656 34.239 C 35.666 34.234 35.677 34.236 35.686 34.23 L 44.686 28.73 C 44.877 28.613 44.967 28.382 44.906 28.167 L 39.922 10.667 C 39.881 10.52 39.774 10.4 39.632 10.341 C 39.49 10.284 39.331 10.293 39.196 10.367 L 34.234 13.151 C 33.994 13.286 33.908 13.591 34.043 13.832 C 34.178 14.074 34.482 14.159 34.725 14.023 L 39.134 11.548 L 43.841 28.074 L 35.826 32.973 L 33.922 17.742 C 33.888 17.467 33.629 17.276 33.363 17.308 C 33.09 17.342 32.895 17.592 32.929 17.866 L 34.836 33.125 L 24.926 30.42 L 24.926 27.69 C 24.926 27.414 24.702 27.19 24.426 27.19 C 24.15 27.19 23.926 27.414 23.926 27.69 L 23.926 30.42 L 14.015 33.125 L 15.922 17.866 C 15.956 17.592 15.762 17.342 15.488 17.308 C 15.216 17.276 14.964 17.467 14.929 17.742 L 13.026 32.973 L 5.011 28.075 L 9.718 11.55 L 14.127 14.025 C 14.369 14.159 14.673 14.074 14.809 13.834 C 14.944 13.593 14.858 13.289 14.618 13.153 L 9.655 10.368 C 9.522 10.293 9.363 10.283 9.22 10.342 C 9.078 10.401 8.971 10.52 8.93 10.668 L 3.946 28.168 C 3.884 28.384 3.974 28.614 4.166 28.731 L 13.165 34.231 Z" style="stroke: rgb(16, 148, 207); stroke-width: 0px; fill: rgb(16, 148, 207); transform-box: fill-box; transform-origin: 50% 50%;"/>
    <path d="M 24.087 25.672 C 24.183 25.76 24.304 25.804 24.426 25.804 C 24.546 25.804 24.666 25.761 24.762 25.675 C 25.095 25.372 32.926 18.186 32.926 10.804 C 32.926 6.037 29.193 2.304 24.426 2.304 C 19.659 2.304 15.926 6.037 15.926 10.804 C 15.926 18.058 23.754 25.364 24.087 25.672 Z M 24.426 3.304 C 28.701 3.304 31.926 6.528 31.926 10.804 C 31.926 16.901 25.933 23.141 24.429 24.611 C 22.928 23.124 16.926 16.802 16.926 10.804 C 16.926 6.528 20.151 3.304 24.426 3.304 Z" style="stroke: rgb(16, 148, 207); stroke-width: 0px; fill: rgb(16, 148, 207); transform-box: fill-box; transform-origin: 50% 50%;"/>
    <path d="M 28.926 10.804 C 28.926 8.323 26.907 6.304 24.426 6.304 C 21.945 6.304 19.926 8.323 19.926 10.804 C 19.926 13.285 21.945 15.304 24.426 15.304 C 26.907 15.304 28.926 13.285 28.926 10.804 Z M 24.426 14.304 C 22.496 14.304 20.926 12.734 20.926 10.804 C 20.926 8.874 22.496 7.304 24.426 7.304 C 26.356 7.304 27.926 8.874 27.926 10.804 C 27.926 12.734 26.356 14.304 24.426 14.304 Z" style="stroke: rgb(16, 148, 207); stroke-width: 0px; fill: rgb(16, 148, 207); transform-box: fill-box; transform-origin: 50% 50%;"/>
  </g>
</svg>